<svg xmlns="http://www.w3.org/2000/svg" viewBox="0 0 24 24" width="24" height="24">
	<style>
		tspan { white-space:pre }
		.shp0 { fill: #2978c5 } 
	</style>
	<path id="Layer" fill-rule="evenodd" class="shp0" d="M18 6.7C18 9.85 15.4 13.61 12 19C8.6 13.61 6 9.85 6 6.7C6 3.55 8.85 1 12 1C15.15 1 18 3.55 18 6.7ZM8 6.7C8 8.75 9.71 11.64 12 15.26C14.29 11.64 16 8.75 16 6.7C16 4.73 14.13 3 12 3C9.87 3 8 4.73 8 6.7ZM12 9C10.89 9 10 8.11 10 7C10 5.89 10.89 5 12 5C13.11 5 14 5.89 14 7C14 8.11 13.11 9 12 9ZM20 15L24 23L0 23L4 15L7.14 15C7.52 15.64 7.93 16.31 8.37 17L5.95 17L6.96 18L9 18L9.34 18.54L9.63 19L9.15 19L8.3 21L15.78 21L14.93 19L14.37 19L14.66 18.54L15 18L19.26 18L18.76 17L15.63 17C16.07 16.31 16.48 15.64 16.87 15L20 15ZM8.06 19L6.52 19L5 17.47L3.24 21L7.21 21L8.06 19ZM16.87 21L20.76 21L19.76 19L16.01 19L16.87 21Z" />
</svg>