<svg xmlns="http://www.w3.org/2000/svg" viewBox="0 0 24 24" width="24" height="24">
	<style>
		tspan { white-space:pre }
		.shp0 { fill: #2978c5 } 
	</style>
	<path id="Layer" fill-rule="evenodd" class="shp0" d="M24 12C24 18.63 18.63 24 12 24C5.37 24 0 18.63 0 12C0 5.37 5.37 0 12 0C18.63 0 24 5.37 24 12ZM2 12C2 17.51 6.49 22 12 22C17.51 22 22 17.51 22 12C22 6.49 17.51 2 12 2C6.49 2 2 6.49 2 12ZM16.5 17.31L15.45 17.83C11.76 19.51 6.04 8.4 9.64 6.52L10.7 6L12.45 9.41L11.4 9.92C10.31 10.51 12.59 14.96 13.71 14.42L14.74 13.91L16.5 17.31Z" />
</svg>